<svg width="537" height="537" viewBox="0 0 537 537" fill="none" xmlns="http://www.w3.org/2000/svg">
<path d="M222.444 536.98C138.422 536.98 59.4245 504.251 0 444.847L2.84512 442.001C123.934 563.09 320.933 563.09 442.022 442.001C500.68 383.344 532.985 305.355 532.985 222.423C532.985 139.491 500.68 61.4827 442.022 2.84512L444.867 0C504.291 59.4245 537 138.422 537 222.443C537 306.465 504.271 385.462 444.867 444.887C385.462 504.271 306.465 536.98 222.444 536.98Z" fill="#6FD392" fill-opacity="0.15"/>
<path d="M222.444 515.208C147.422 515.208 72.4195 486.656 15.3154 429.552L18.1606 426.707C130.795 539.341 314.073 539.341 426.727 426.707C539.361 314.072 539.361 130.774 426.727 18.1403L429.572 15.2952C543.78 129.503 543.78 315.344 429.572 429.572C372.468 486.656 297.446 515.208 222.444 515.208Z" fill="#6FD392" fill-opacity="0.15"/>
<path d="M222.443 493.698C149.984 493.698 81.8625 465.469 30.6101 414.236L33.4552 411.391C83.9409 461.877 151.053 489.662 222.423 489.662C293.813 489.662 360.926 461.857 411.391 411.391C461.877 360.906 489.662 293.793 489.662 222.423C489.662 151.033 461.857 83.9207 411.391 33.4552L414.236 30.6101C465.469 81.8423 493.698 149.984 493.698 222.443C493.698 294.903 465.469 363.024 414.236 414.277C363.024 465.469 294.903 493.698 222.443 493.698Z" fill="#6FD392" fill-opacity="0.15"/>
<path d="M222.443 471.926C158.519 471.926 94.5949 447.591 45.9253 398.921L48.7704 396.076C144.536 491.841 300.351 491.841 396.116 396.076C491.882 300.311 491.882 144.495 396.116 48.7301L398.961 45.885C496.301 143.224 496.301 301.602 398.961 398.921C350.292 447.591 286.368 471.926 222.443 471.926Z" fill="#6FD392" fill-opacity="0.15"/>
<path d="M222.444 450.295C164.068 450.295 105.673 428.079 61.2205 383.626L64.0656 380.781C151.396 468.112 293.471 468.112 380.781 380.781C468.112 293.45 468.112 151.376 380.781 64.0656L383.626 61.2205C472.511 150.105 472.511 294.762 383.626 383.647C339.214 428.079 280.819 450.295 222.444 450.295Z" fill="#6FD392" fill-opacity="0.15"/>
<path d="M222.443 428.664C169.597 428.664 116.75 408.546 76.5354 368.331L79.3805 365.486C158.257 444.362 286.61 444.362 365.486 365.486C403.703 327.269 424.749 276.46 424.749 222.423C424.749 168.386 403.703 117.578 365.486 79.3603L368.331 76.5151C407.315 115.479 428.765 167.317 428.765 222.423C428.765 277.529 407.295 329.367 368.331 368.331C328.116 408.546 275.29 428.664 222.443 428.664Z" fill="#6FD392" fill-opacity="0.15"/>
<path d="M222.443 407.033C175.146 407.033 127.848 389.034 91.8306 353.016L94.6757 350.171C165.117 420.613 279.729 420.613 350.171 350.171C420.613 279.729 420.613 165.117 350.171 94.6757L353.016 91.8306C425.032 163.846 425.032 281.02 353.016 353.036C317.038 389.014 269.741 407.033 222.443 407.033Z" fill="#6FD392" fill-opacity="0.15"/>
</svg>
