<svg width="35" height="26" viewBox="0 0 35 26" fill="none" xmlns="http://www.w3.org/2000/svg">
<path d="M29.2754 0.85977L27.0362 2.58288L17.5022 9.56149L7.9681 2.51396L5.7289 0.790845C5.20139 0.361006 4.55743 0.093053 3.87682 0.0201826C3.19621 -0.0526879 2.50885 0.0727268 1.89989 0.380889C1.29094 0.689051 0.787149 1.16642 0.450943 1.75385C0.114738 2.34128 -0.0391109 3.01296 0.00845714 3.68568V23.6566C0.00845714 24.2781 0.259116 24.8741 0.705293 25.3136C1.15147 25.7531 1.75661 26 2.3876 26H7.9681V12.6976L17.5022 19.7451L27.0362 12.6976V26H32.6167C33.2477 26 33.8529 25.7531 34.2991 25.3136C34.7452 24.8741 34.9959 24.2781 34.9959 23.6566V3.68568C35.0287 3.01877 34.8642 2.35682 34.5222 1.7803C34.1803 1.20377 33.6757 0.737508 33.0698 0.438176C32.4638 0.138844 31.7827 0.019337 31.1091 0.0941815C30.4355 0.169026 29.7985 0.434999 29.2754 0.85977V0.85977Z" fill="black"/>
</svg>
