<svg width="327" height="293" viewBox="0 0 327 293" fill="none" xmlns="http://www.w3.org/2000/svg">
<g clip-path="url(#clip0_29_1572)">
<path d="M11.5518 270.258C9.26662 270.256 7.03214 270.921 5.13105 272.17C3.22995 273.419 1.74765 275.195 0.871678 277.273C-0.0042977 279.352 -0.234595 281.64 0.209919 283.847C0.654433 286.055 1.75379 288.083 3.3689 289.675C4.98402 291.267 7.04234 292.351 9.28346 292.791C11.5246 293.231 13.8478 293.006 15.9593 292.146C18.0707 291.285 19.8755 289.827 21.1453 287.956C22.4151 286.085 23.0929 283.885 23.0929 281.634C23.0929 278.619 21.8773 275.727 19.7132 273.594C17.5492 271.461 14.6137 270.261 11.5518 270.258Z" fill="#DDF5E5" fill-opacity="0.46"/>
<path d="M285.98 4.92442e-06C283.694 -0.00208853 281.46 0.663335 279.559 1.9121C277.658 3.16087 276.175 4.93687 275.299 7.01543C274.423 9.09399 274.193 11.3817 274.638 13.5892C275.082 15.7967 276.182 17.8247 277.797 19.4168C279.412 21.0088 281.47 22.0934 283.711 22.5332C285.952 22.973 288.276 22.7483 290.387 21.8876C292.498 21.0269 294.303 19.5687 295.573 17.6977C296.843 15.8267 297.521 13.6267 297.521 11.3763C297.521 8.36094 296.305 5.46894 294.141 3.33578C291.977 1.20262 289.041 0.0028099 285.98 4.92442e-06Z" fill="#DDF5E5" fill-opacity="0.46"/>
<path d="M331.714 0C329.429 0 327.196 0.667204 325.296 1.91725C323.396 3.16729 321.916 4.94402 321.041 7.02276C320.167 9.10151 319.938 11.3889 320.384 13.5957C320.83 15.8025 321.93 17.8295 323.546 19.4205C325.161 21.0115 327.219 22.095 329.46 22.534C331.701 22.9729 334.024 22.7476 336.135 21.8866C338.245 21.0255 340.05 19.5674 341.319 17.6966C342.588 15.8258 343.266 13.6263 343.266 11.3763C343.266 8.3591 342.049 5.4655 339.882 3.33203C337.716 1.19857 334.778 0 331.714 0Z" fill="#DDF5E5" fill-opacity="0.46"/>
<path d="M331.714 45.0501C329.429 45.0501 327.195 45.7175 325.295 46.968C323.395 48.2186 321.914 49.9959 321.04 52.0753C320.166 54.1546 319.938 56.4426 320.385 58.6496C320.831 60.8567 321.933 62.8837 323.549 64.4743C325.166 66.0649 327.225 67.1475 329.467 67.5853C331.708 68.0231 334.031 67.7963 336.142 66.9336C338.253 66.0709 340.056 64.6112 341.324 62.739C342.592 60.8667 343.268 58.6662 343.266 56.4158C343.266 54.9223 342.967 53.4435 342.386 52.0638C341.805 50.6842 340.954 49.4308 339.882 48.3752C338.809 47.3197 337.535 46.4827 336.134 45.9122C334.732 45.3416 333.23 45.0487 331.714 45.0501Z" fill="#DDF5E5" fill-opacity="0.46"/>
<path d="M285.98 45.0501C283.694 45.048 281.459 45.7137 279.558 46.9629C277.656 48.2121 276.174 49.9888 275.298 52.0679C274.423 54.1471 274.193 56.4354 274.638 58.6431C275.084 60.8509 276.184 62.8789 277.8 64.4706C279.417 66.0622 281.476 67.1459 283.718 67.5845C285.96 68.0232 288.283 67.797 290.394 66.9346C292.506 66.0723 294.31 64.6125 295.578 62.7401C296.847 60.8676 297.523 58.6667 297.521 56.4158C297.521 54.9232 297.222 53.4452 296.642 52.0663C296.062 50.6873 295.212 49.4344 294.14 48.379C293.069 47.3236 291.796 46.4864 290.396 45.9152C288.996 45.344 287.495 45.0501 285.98 45.0501Z" fill="#DDF5E5" fill-opacity="0.46"/>
<path d="M285.98 90.0896C283.694 90.0875 281.46 90.7529 279.559 92.0017C277.658 93.2505 276.175 95.0265 275.299 97.105C274.423 99.1836 274.193 101.471 274.638 103.679C275.082 105.886 276.182 107.914 277.797 109.506C279.412 111.098 281.47 112.183 283.711 112.623C285.952 113.063 288.276 112.838 290.387 111.977C292.498 111.116 294.303 109.658 295.573 107.787C296.843 105.916 297.521 103.716 297.521 101.466C297.521 98.4505 296.305 95.5585 294.141 93.4254C291.977 91.2922 289.041 90.0924 285.98 90.0896Z" fill="#DDF5E5" fill-opacity="0.46"/>
<path d="M331.714 90.0896C329.429 90.0896 327.196 90.7568 325.296 92.0069C323.396 93.2569 321.916 95.0336 321.041 97.1124C320.167 99.1911 319.938 101.478 320.384 103.685C320.83 105.892 321.93 107.919 323.546 109.51C325.161 111.101 327.219 112.185 329.46 112.624C331.701 113.063 334.024 112.837 336.135 111.976C338.245 111.115 340.05 109.657 341.319 107.786C342.588 105.915 343.266 103.716 343.266 101.466C343.266 98.4487 342.049 95.5551 339.882 93.4216C337.716 91.2882 334.778 90.0896 331.714 90.0896Z" fill="#DDF5E5" fill-opacity="0.46"/>
<path d="M285.98 135.129C283.694 135.127 281.46 135.792 279.559 137.041C277.658 138.29 276.175 140.066 275.299 142.144C274.423 144.223 274.193 146.511 274.638 148.718C275.082 150.926 276.182 152.954 277.797 154.546C279.412 156.138 281.47 157.222 283.711 157.662C285.952 158.102 288.276 157.877 290.387 157.017C292.498 156.156 294.303 154.698 295.573 152.827C296.843 150.956 297.521 148.756 297.521 146.505C297.521 143.49 296.305 140.598 294.141 138.465C291.977 136.332 289.041 135.132 285.98 135.129Z" fill="#DDF5E5" fill-opacity="0.46"/>
<path d="M331.714 135.129C329.429 135.129 327.196 135.796 325.296 137.046C323.396 138.296 321.916 140.073 321.041 142.152C320.167 144.231 319.938 146.518 320.384 148.725C320.83 150.931 321.93 152.959 323.546 154.55C325.161 156.141 327.219 157.224 329.46 157.663C331.701 158.102 334.024 157.877 336.135 157.016C338.245 156.155 340.05 154.696 341.319 152.826C342.588 150.955 343.266 148.755 343.266 146.505C343.266 143.488 342.049 140.595 339.882 138.461C337.716 136.328 334.778 135.129 331.714 135.129Z" fill="#DDF5E5" fill-opacity="0.46"/>
<path d="M331.714 180.179C329.429 180.179 327.195 180.847 325.295 182.097C323.395 183.348 321.914 185.125 321.04 187.204C320.166 189.284 319.938 191.572 320.385 193.779C320.831 195.986 321.933 198.013 323.549 199.603C325.166 201.194 327.225 202.277 329.467 202.714C331.708 203.152 334.031 202.925 336.142 202.063C338.253 201.2 340.056 199.74 341.324 197.868C342.592 195.996 343.268 193.795 343.266 191.545C343.266 190.051 342.967 188.572 342.386 187.193C341.805 185.813 340.954 184.56 339.882 183.504C338.809 182.449 337.535 181.612 336.134 181.041C334.732 180.471 333.23 180.178 331.714 180.179Z" fill="#DDF5E5" fill-opacity="0.46"/>
<path d="M285.98 180.179C283.694 180.177 281.459 180.843 279.558 182.092C277.656 183.341 276.174 185.118 275.298 187.197C274.423 189.276 274.193 191.564 274.638 193.772C275.084 195.98 276.184 198.008 277.8 199.6C279.417 201.191 281.476 202.275 283.718 202.714C285.96 203.152 288.283 202.926 290.394 202.064C292.506 201.201 294.31 199.742 295.578 197.869C296.847 195.997 297.523 193.796 297.521 191.545C297.521 190.052 297.222 188.574 296.642 187.195C296.062 185.816 295.212 184.563 294.14 183.508C293.069 182.453 291.796 181.615 290.396 181.044C288.996 180.473 287.495 180.179 285.98 180.179Z" fill="#DDF5E5" fill-opacity="0.46"/>
<path d="M331.714 225.219C329.429 225.219 327.196 225.886 325.296 227.136C323.396 228.386 321.916 230.163 321.041 232.241C320.167 234.32 319.938 236.607 320.384 238.814C320.83 241.021 321.93 243.048 323.546 244.639C325.161 246.23 327.219 247.313 329.46 247.752C331.701 248.191 334.024 247.966 336.135 247.105C338.245 246.244 340.05 244.786 341.319 242.915C342.588 241.044 343.266 238.845 343.266 236.595C343.266 233.578 342.049 230.684 339.882 228.551C337.716 226.417 334.778 225.219 331.714 225.219Z" fill="#DDF5E5" fill-opacity="0.46"/>
<path d="M11.552 4.92442e-06C9.26686 -0.00208853 7.03239 0.663335 5.13129 1.9121C3.23019 3.16087 1.7479 4.93687 0.871923 7.01543C-0.00405356 9.09399 -0.234351 11.3817 0.210163 13.5892C0.654677 15.7967 1.75403 17.8247 3.36915 19.4168C4.98427 21.0088 7.04258 22.0934 9.28371 22.5332C11.5248 22.973 13.8481 22.7483 15.9595 21.8876C18.0709 21.0269 19.8757 19.5687 21.1455 17.6977C22.4153 15.8267 23.0931 13.6267 23.0931 11.3763C23.0931 8.36094 21.8775 5.46894 19.7135 3.33578C17.5494 1.20262 14.6139 0.0028099 11.552 4.92442e-06Z" fill="#DDF5E5" fill-opacity="0.46"/>
<path d="M57.2862 0C55.0014 0 52.768 0.667204 50.8683 1.91725C48.9687 3.16729 47.488 4.94402 46.6137 7.02276C45.7394 9.10151 45.5106 11.3889 45.9563 13.5957C46.4021 15.8025 47.5023 17.8295 49.1178 19.4205C50.7334 21.0115 52.7917 22.095 55.0325 22.534C57.2734 22.9729 59.596 22.7476 61.7069 21.8866C63.8177 21.0255 65.6218 19.5674 66.8911 17.6966C68.1605 15.8258 68.838 13.6263 68.838 11.3763C68.838 8.3591 67.6209 5.4655 65.4545 3.33203C63.2881 1.19857 60.3499 0 57.2862 0Z" fill="#DDF5E5" fill-opacity="0.46"/>
<path d="M114.555 11.7898C114.788 5.51108 109.809 0.23453 103.434 0.00429943C97.0583 -0.225931 91.7003 4.67734 91.4665 10.9561C91.2327 17.2348 96.2117 22.5113 102.587 22.7416C108.963 22.9718 114.321 18.0685 114.555 11.7898Z" fill="#DDF5E5" fill-opacity="0.46"/>
<path d="M114.565 56.7784C114.77 50.4986 109.767 45.2444 103.39 45.0427C97.0139 44.8409 91.6785 49.7681 91.4737 56.0478C91.2688 62.3275 96.272 67.5818 102.649 67.7835C109.025 67.9852 114.361 63.0581 114.565 56.7784Z" fill="#DDF5E5" fill-opacity="0.46"/>
<path d="M57.2862 45.05C55.001 45.05 52.7671 45.7175 50.8672 46.968C48.9673 48.2185 47.4867 49.9959 46.6127 52.0753C45.7387 54.1546 45.5105 56.4426 45.9571 58.6496C46.4037 60.8567 47.505 62.8837 49.1216 64.4743C50.7382 66.0649 52.7976 67.1475 55.0391 67.5853C57.2807 68.0231 59.6037 67.7963 61.7143 66.9336C63.8249 66.0709 65.6283 64.6112 66.8964 62.7389C68.1644 60.8667 68.8401 58.6662 68.838 56.4157C68.8351 53.4004 67.6168 50.5095 65.4507 48.3783C63.2847 46.2472 60.348 45.05 57.2862 45.05Z" fill="#DDF5E5" fill-opacity="0.46"/>
<path d="M11.5518 45.0501C9.26616 45.048 7.03125 45.7137 5.12992 46.9629C3.2286 48.2121 1.74631 49.9888 0.870648 52.0679C-0.00501225 54.1471 -0.234682 56.4354 0.210704 58.6431C0.65609 60.8509 1.75651 62.8789 3.37271 64.4706C4.9889 66.0622 7.04822 67.1459 9.29005 67.5845C11.5319 68.0232 13.8554 67.797 15.9667 66.9346C18.078 66.0723 19.882 64.6125 21.1505 62.7401C22.419 60.8676 23.095 58.6667 23.0929 56.4158C23.0929 53.4014 21.8769 50.5105 19.7126 48.379C17.5482 46.2475 14.6127 45.0501 11.5518 45.0501Z" fill="#DDF5E5" fill-opacity="0.46"/>
<path d="M11.5518 90.0896C9.26662 90.0875 7.03214 90.7529 5.13105 92.0017C3.22995 93.2505 1.74765 95.0265 0.871678 97.105C-0.0042977 99.1836 -0.234595 101.471 0.209919 103.679C0.654433 105.886 1.75379 107.914 3.3689 109.506C4.98402 111.098 7.04234 112.183 9.28346 112.623C11.5246 113.063 13.8478 112.838 15.9593 111.977C18.0707 111.116 19.8755 109.658 21.1453 107.787C22.4151 105.916 23.0929 103.716 23.0929 101.466C23.0929 98.4505 21.8773 95.5585 19.7132 93.4254C17.5492 91.2922 14.6137 90.0924 11.5518 90.0896Z" fill="#DDF5E5" fill-opacity="0.46"/>
<path d="M57.2862 90.0896C55.0014 90.0896 52.768 90.7568 50.8683 92.0069C48.9687 93.2569 47.488 95.0336 46.6137 97.1124C45.7394 99.1911 45.5106 101.478 45.9563 103.685C46.4021 105.892 47.5023 107.919 49.1178 109.51C50.7334 111.101 52.7917 112.185 55.0325 112.624C57.2734 113.063 59.596 112.837 61.7069 111.976C63.8177 111.115 65.6218 109.657 66.8911 107.786C68.1605 105.915 68.838 103.716 68.838 101.466C68.838 98.4487 67.6209 95.5551 65.4545 93.4216C63.2881 91.2882 60.3499 90.0896 57.2862 90.0896Z" fill="#DDF5E5" fill-opacity="0.46"/>
<path d="M114.396 101.387C114.588 95.1043 109.571 89.8582 103.191 89.6697C96.8111 89.4812 91.484 94.4217 91.2926 100.705C91.1012 106.988 96.118 112.234 102.498 112.422C108.878 112.611 114.205 107.67 114.396 101.387Z" fill="#DDF5E5" fill-opacity="0.46"/>
<path d="M11.5518 135.129C9.26662 135.127 7.03214 135.792 5.13105 137.041C3.22995 138.29 1.74765 140.066 0.871678 142.144C-0.0042977 144.223 -0.234595 146.511 0.209919 148.718C0.654433 150.926 1.75379 152.954 3.3689 154.546C4.98402 156.138 7.04234 157.222 9.28346 157.662C11.5246 158.102 13.8478 157.877 15.9593 157.017C18.0707 156.156 19.8755 154.698 21.1453 152.827C22.4151 150.956 23.0929 148.756 23.0929 146.505C23.0929 143.49 21.8773 140.598 19.7132 138.465C17.5492 136.332 14.6137 135.132 11.5518 135.129Z" fill="#DDF5E5" fill-opacity="0.46"/>
<path d="M57.2862 135.129C55.0014 135.129 52.768 135.796 50.8683 137.046C48.9687 138.296 47.488 140.073 46.6137 142.152C45.7394 144.231 45.5106 146.518 45.9563 148.725C46.4021 150.931 47.5023 152.959 49.1178 154.55C50.7334 156.141 52.7917 157.224 55.0325 157.663C57.2734 158.102 59.596 157.877 61.7069 157.016C63.8177 156.155 65.6218 154.696 66.8911 152.826C68.1605 150.955 68.838 148.755 68.838 146.505C68.838 143.488 67.6209 140.595 65.4545 138.461C63.2881 136.328 60.3499 135.129 57.2862 135.129Z" fill="#DDF5E5" fill-opacity="0.46"/>
<path d="M114.559 146.907C114.793 140.629 109.814 135.352 103.438 135.122C97.0629 134.892 91.7049 139.795 91.4712 146.074C91.2374 152.352 96.2163 157.629 102.592 157.859C108.967 158.089 114.325 153.186 114.559 146.907Z" fill="#DDF5E5" fill-opacity="0.46"/>
<path d="M114.559 191.907C114.764 185.628 109.761 180.373 103.384 180.172C97.0075 179.97 91.6722 184.897 91.4673 191.177C91.2625 197.457 96.2657 202.711 102.642 202.913C109.019 203.114 114.354 198.187 114.559 191.907Z" fill="#DDF5E5" fill-opacity="0.46"/>
<path d="M57.2862 180.179C55.001 180.179 52.7671 180.847 50.8672 182.097C48.9673 183.348 47.4867 185.125 46.6127 187.204C45.7387 189.284 45.5105 191.572 45.9571 193.779C46.4037 195.986 47.505 198.013 49.1216 199.603C50.7382 201.194 52.7976 202.277 55.0391 202.714C57.2807 203.152 59.6037 202.925 61.7143 202.063C63.8249 201.2 65.6283 199.74 66.8964 197.868C68.1644 195.996 68.8401 193.795 68.838 191.545C68.8351 188.529 67.6168 185.639 65.4507 183.507C63.2847 181.376 60.348 180.179 57.2862 180.179Z" fill="#DDF5E5" fill-opacity="0.46"/>
<path d="M11.5518 180.179C9.26616 180.177 7.03125 180.843 5.12992 182.092C3.2286 183.341 1.74631 185.118 0.870648 187.197C-0.00501225 189.276 -0.234682 191.564 0.210704 193.772C0.65609 195.98 1.75651 198.008 3.37271 199.6C4.9889 201.191 7.04822 202.275 9.29005 202.714C11.5319 203.152 13.8554 202.926 15.9667 202.064C18.078 201.201 19.882 199.742 21.1505 197.869C22.419 195.997 23.095 193.796 23.0929 191.545C23.0929 190.052 22.7943 188.574 22.2143 187.195C21.6343 185.816 20.7842 184.563 19.7126 183.508C18.6409 182.453 17.3686 181.615 15.9684 181.044C14.5681 180.473 13.0674 180.179 11.5518 180.179Z" fill="#DDF5E5" fill-opacity="0.46"/>
<path d="M11.5518 225.219C9.26662 225.216 7.03214 225.882 5.13105 227.131C3.22995 228.379 1.74765 230.155 0.871678 232.234C-0.0042977 234.312 -0.234595 236.6 0.209919 238.808C0.654433 241.015 1.75379 243.043 3.3689 244.635C4.98402 246.227 7.04234 247.312 9.28346 247.752C11.5246 248.191 13.8478 247.967 15.9593 247.106C18.0707 246.245 19.8755 244.787 21.1453 242.916C22.4151 241.045 23.0929 238.845 23.0929 236.595C23.0929 233.579 21.8773 230.687 19.7132 228.554C17.5492 226.421 14.6137 225.221 11.5518 225.219Z" fill="#DDF5E5" fill-opacity="0.46"/>
<path d="M57.2862 225.219C55.0014 225.219 52.768 225.886 50.8683 227.136C48.9687 228.386 47.488 230.163 46.6137 232.241C45.7394 234.32 45.5106 236.607 45.9563 238.814C46.4021 241.021 47.5023 243.048 49.1178 244.639C50.7334 246.23 52.7917 247.313 55.0325 247.752C57.2734 248.191 59.596 247.966 61.7069 247.105C63.8177 246.244 65.6218 244.786 66.8911 242.915C68.1605 241.044 68.838 238.845 68.838 236.595C68.838 233.578 67.6209 230.684 65.4545 228.551C63.2881 226.417 60.3499 225.219 57.2862 225.219Z" fill="#DDF5E5" fill-opacity="0.46"/>
<path d="M148.766 22.7526C155.146 22.7526 160.317 17.6592 160.317 11.3763C160.317 5.09333 155.146 0 148.766 0C142.386 0 137.214 5.09333 137.214 11.3763C137.214 17.6592 142.386 22.7526 148.766 22.7526Z" fill="#DDF5E5" fill-opacity="0.46"/>
<path d="M194.538 22.7486C200.918 22.73 206.075 17.6215 206.056 11.3386C206.037 5.05571 200.85 -0.0224887 194.47 -0.00384682C188.09 0.014795 182.933 5.12321 182.952 11.4061C182.971 17.689 188.158 22.7672 194.538 22.7486Z" fill="#DDF5E5" fill-opacity="0.46"/>
<path d="M240.234 4.93182e-06C237.95 4.93182e-06 235.716 0.667209 233.817 1.91725C231.917 3.16729 230.436 4.94402 229.562 7.02277C228.688 9.10151 228.459 11.3889 228.905 13.5957C229.35 15.8025 230.451 17.8295 232.066 19.4205C233.682 21.0115 235.74 22.095 237.981 22.534C240.222 22.9729 242.544 22.7476 244.655 21.8866C246.766 21.0255 248.57 19.5674 249.839 17.6966C251.109 15.8258 251.786 13.6263 251.786 11.3763C251.788 9.88193 251.49 8.40198 250.91 7.02112C250.33 5.64026 249.479 4.38559 248.406 3.32893C247.333 2.27227 246.059 1.43435 244.657 0.863134C243.255 0.291916 241.752 -0.0013871 240.234 4.93182e-06Z" fill="#DDF5E5" fill-opacity="0.46"/>
<path d="M240.234 45.0501C237.949 45.0501 235.715 45.7175 233.815 46.968C231.916 48.2186 230.435 49.9959 229.561 52.0753C228.687 54.1546 228.459 56.4426 228.905 58.6496C229.352 60.8567 230.453 62.8837 232.07 64.4743C233.686 66.0649 235.746 67.1475 237.987 67.5853C240.229 68.0231 242.552 67.7963 244.663 66.9336C246.773 66.0709 248.577 64.6112 249.845 62.739C251.113 60.8667 251.788 58.6662 251.786 56.4158C251.786 54.9223 251.487 53.4435 250.907 52.0638C250.326 50.6842 249.475 49.4308 248.402 48.3752C247.329 47.3197 246.056 46.4827 244.654 45.9122C243.253 45.3416 241.751 45.0487 240.234 45.0501Z" fill="#DDF5E5" fill-opacity="0.46"/>
<path d="M194.53 67.7984C200.91 67.7819 206.068 62.6753 206.052 56.3924C206.035 50.1094 200.85 45.0295 194.47 45.0459C188.09 45.0623 182.932 50.169 182.948 56.4519C182.965 62.7348 188.15 67.8148 194.53 67.7984Z" fill="#DDF5E5" fill-opacity="0.46"/>
<path d="M148.766 67.792C155.146 67.792 160.317 62.6986 160.317 56.4157C160.317 50.1328 155.146 45.0394 148.766 45.0394C142.386 45.0394 137.214 50.1328 137.214 56.4157C137.214 62.6986 142.386 67.792 148.766 67.792Z" fill="#DDF5E5" fill-opacity="0.46"/>
<path d="M148.766 112.832C155.146 112.832 160.317 107.738 160.317 101.455C160.317 95.1723 155.146 90.079 148.766 90.079C142.386 90.079 137.214 95.1723 137.214 101.455C137.214 107.738 142.386 112.832 148.766 112.832Z" fill="#DDF5E5" fill-opacity="0.46"/>
<path d="M194.521 112.848C200.901 112.832 206.059 107.725 206.043 101.442C206.026 95.1594 200.841 90.0794 194.461 90.0958C188.081 90.1123 182.922 95.2189 182.939 101.502C182.956 107.785 188.141 112.865 194.521 112.848Z" fill="#DDF5E5" fill-opacity="0.46"/>
<path d="M240.234 90.0896C237.95 90.0896 235.716 90.7568 233.817 92.0069C231.917 93.2569 230.436 95.0336 229.562 97.1124C228.688 99.1911 228.459 101.478 228.905 103.685C229.35 105.892 230.451 107.919 232.066 109.51C233.682 111.101 235.74 112.185 237.981 112.624C240.222 113.063 242.544 112.837 244.655 111.976C246.766 111.115 248.57 109.657 249.839 107.786C251.109 105.915 251.786 103.716 251.786 101.466C251.788 99.9715 251.49 98.4916 250.91 97.1107C250.33 95.7299 249.479 94.4752 248.406 93.4185C247.333 92.3619 246.059 91.524 244.657 90.9527C243.255 90.3815 241.752 90.0882 240.234 90.0896Z" fill="#DDF5E5" fill-opacity="0.46"/>
<path d="M148.766 157.882C155.146 157.882 160.317 152.788 160.317 146.505C160.317 140.222 155.146 135.129 148.766 135.129C142.386 135.129 137.214 140.222 137.214 146.505C137.214 152.788 142.386 157.882 148.766 157.882Z" fill="#DDF5E5" fill-opacity="0.46"/>
<path d="M240.234 135.129C237.95 135.129 235.716 135.796 233.817 137.046C231.917 138.296 230.436 140.073 229.562 142.152C228.688 144.231 228.459 146.518 228.905 148.725C229.35 150.931 230.451 152.959 232.066 154.55C233.682 156.141 235.74 157.224 237.981 157.663C240.222 158.102 242.544 157.877 244.655 157.016C246.766 156.155 248.57 154.696 249.839 152.826C251.109 150.955 251.786 148.755 251.786 146.505C251.788 145.011 251.49 143.531 250.91 142.15C250.33 140.769 249.479 139.515 248.406 138.458C247.333 137.401 246.059 136.563 244.657 135.992C243.255 135.421 241.752 135.128 240.234 135.129Z" fill="#DDF5E5" fill-opacity="0.46"/>
</g>
<defs>
<clipPath id="clip0_29_1572">
<rect width="389" height="293" fill="white"/>
</clipPath>
</defs>
</svg>
