<svg width="60" height="48" viewBox="0 0 60 48" fill="none" xmlns="http://www.w3.org/2000/svg">
<path d="M47.7097 21.96C48.0782 22.6964 48.5418 23.3822 49.0887 24C48.5418 24.6178 48.0782 25.3036 47.7097 26.04C46.4516 28.608 46.4516 31.632 46.4516 34.56C46.4516 40.776 46.0161 42.24 41.6129 42.24C40.8429 42.24 40.1045 42.5434 39.56 43.0835C39.0156 43.6236 38.7097 44.3562 38.7097 45.12C38.7097 45.8838 39.0156 46.6164 39.56 47.1565C40.1045 47.6966 40.8429 48 41.6129 48C46.2339 48 49.4032 46.344 51 43.08C52.2581 40.512 52.2581 37.488 52.2581 34.56C52.2581 28.344 52.6935 26.88 57.0968 26.88C57.8668 26.88 58.6052 26.5766 59.1497 26.0365C59.6941 25.4964 60 24.7638 60 24C60 23.2362 59.6941 22.5036 59.1497 21.9635C58.6052 21.4234 57.8668 21.12 57.0968 21.12C52.6935 21.12 52.2581 19.656 52.2581 13.44C52.2581 10.512 52.2581 7.488 51 4.92C49.4032 1.656 46.2339 0 41.6129 0C40.8429 0 40.1045 0.303428 39.56 0.843533C39.0156 1.38364 38.7097 2.11618 38.7097 2.88C38.7097 3.64382 39.0156 4.37636 39.56 4.91647C40.1045 5.45657 40.8429 5.76 41.6129 5.76C46.0161 5.76 46.4516 7.224 46.4516 13.44C46.4516 16.368 46.4516 19.392 47.7097 21.96ZM2.90323 21.12C7.30645 21.12 7.74194 19.656 7.74194 13.44C7.74194 10.512 7.74194 7.488 9 4.92C10.5968 1.656 13.7661 0 18.3871 0C19.1571 0 19.8955 0.303428 20.44 0.843533C20.9844 1.38364 21.2903 2.11618 21.2903 2.88C21.2903 3.64382 20.9844 4.37636 20.44 4.91647C19.8955 5.45657 19.1571 5.76 18.3871 5.76C13.9839 5.76 13.5484 7.224 13.5484 13.44C13.5484 16.368 13.5484 19.392 12.2903 21.96C11.9218 22.6964 11.4582 23.3822 10.9113 24C11.4582 24.6178 11.9218 25.3036 12.2903 26.04C13.5484 28.608 13.5484 31.632 13.5484 34.56C13.5484 40.776 13.9839 42.24 18.3871 42.24C19.1571 42.24 19.8955 42.5434 20.44 43.0835C20.9844 43.6236 21.2903 44.3562 21.2903 45.12C21.2903 45.8838 20.9844 46.6164 20.44 47.1565C19.8955 47.6966 19.1571 48 18.3871 48C13.7661 48 10.5968 46.344 9 43.08C7.74194 40.512 7.74194 37.488 7.74194 34.56C7.74194 28.344 7.30645 26.88 2.90323 26.88C2.13324 26.88 1.3948 26.5766 0.850338 26.0365C0.305878 25.4964 0 24.7638 0 24C0 23.2362 0.305878 22.5036 0.850338 21.9635C1.3948 21.4234 2.13324 21.12 2.90323 21.12Z" fill="white"/>
</svg>
