<svg width="66" height="66" viewBox="0 0 66 66" fill="none" xmlns="http://www.w3.org/2000/svg">
<path d="M49.5 6.1875H16.5C15.406 6.1875 14.3568 6.6221 13.5832 7.39568C12.8096 8.16927 12.375 9.21848 12.375 10.3125V55.6875C12.375 56.7815 12.8096 57.8307 13.5832 58.6043C14.3568 59.3779 15.406 59.8125 16.5 59.8125H49.5C50.594 59.8125 51.6432 59.3779 52.4168 58.6043C53.1904 57.8307 53.625 56.7815 53.625 55.6875V10.3125C53.625 9.21848 53.1904 8.16927 52.4168 7.39568C51.6432 6.6221 50.594 6.1875 49.5 6.1875ZM49.5 10.3125V22.6875H16.5V10.3125H49.5ZM16.5 39.1875V26.8125H49.5V39.1875H16.5ZM16.5 55.6875V43.3125H49.5V55.6875H16.5Z" fill="white"/>
<path d="M22.6875 18.5625C23.8266 18.5625 24.75 17.6391 24.75 16.5C24.75 15.3609 23.8266 14.4375 22.6875 14.4375C21.5484 14.4375 20.625 15.3609 20.625 16.5C20.625 17.6391 21.5484 18.5625 22.6875 18.5625Z" fill="white"/>
<path d="M22.6875 35.0625C23.8266 35.0625 24.75 34.1391 24.75 33C24.75 31.8609 23.8266 30.9375 22.6875 30.9375C21.5484 30.9375 20.625 31.8609 20.625 33C20.625 34.1391 21.5484 35.0625 22.6875 35.0625Z" fill="white"/>
<path d="M22.6875 51.5625C23.8266 51.5625 24.75 50.6391 24.75 49.5C24.75 48.3609 23.8266 47.4375 22.6875 47.4375C21.5484 47.4375 20.625 48.3609 20.625 49.5C20.625 50.6391 21.5484 51.5625 22.6875 51.5625Z" fill="white"/>
</svg>
