<svg width="52" height="49" viewBox="0 0 52 49" fill="none" xmlns="http://www.w3.org/2000/svg">
<path d="M21.2031 48.5971C26.0737 46.691 25.0065 41.4358 22.5439 38.1138C20.1086 34.7101 16.7429 32.3684 13.3499 30.1084C10.929 28.59 8.76747 26.6964 6.94704 24.4992C6.18088 23.6006 4.6212 21.9396 6.20824 21.6128C7.82265 21.2861 10.6137 22.8654 12.0365 23.4644C14.5266 24.4992 16.9892 25.6972 19.2877 27.1132L22.0513 22.4842C17.7827 19.6796 12.3102 17.2017 7.22067 16.4665C4.3202 16.0308 1.25556 16.6299 0.2705 19.7613C-0.605112 22.457 0.790394 25.1799 2.37744 27.3038C6.12615 32.2867 11.9544 34.6829 16.3051 38.9851C17.2355 39.8837 18.3574 40.9457 18.9046 42.1982C19.4792 43.3963 19.3424 43.478 18.0564 43.478C14.6634 43.478 10.4221 40.8367 7.65847 39.0941L4.89482 43.723C9.08134 46.2826 16.0862 50.2853 21.2031 48.5971M51.5485 6.11937C52.1505 5.52033 52.1505 4.54007 51.5485 3.96826L47.9913 0.428446C47.7047 0.153579 47.3222 0 46.9242 0C46.5262 0 46.1436 0.153579 45.857 0.428446L43.066 3.20583L48.7575 8.86953M24.6235 21.5584V27.2221H30.3149L47.1431 10.4761L41.4516 4.81236L24.6235 21.5584Z" fill="white"/>
</svg>
