<svg width="34" height="34" viewBox="0 0 34 34" fill="none" xmlns="http://www.w3.org/2000/svg">
<path d="M32.1297 1.87026C30.8823 0.622854 29.3813 0 27.6251 0H6.37489C4.61865 0 3.11767 0.622854 1.87026 1.87026C0.622854 3.11767 0 4.61865 0 6.37489V27.6251C0 29.3813 0.622854 30.8823 1.87026 32.1297C3.11767 33.3771 4.61865 34 6.37489 34H11.3339C11.6572 34 11.9006 33.9881 12.064 33.966C12.254 33.9279 12.4256 33.8265 12.5507 33.6784C12.7123 33.5082 12.794 33.2614 12.794 32.9381L12.7821 31.432C12.7753 30.4722 12.7719 29.7132 12.7719 29.1516L12.2614 29.2401C11.938 29.2997 11.5296 29.3252 11.0344 29.3184C10.5182 29.3089 10.0037 29.2571 9.49597 29.1635C8.95549 29.0637 8.4467 28.8362 8.01201 28.4998C7.55677 28.1554 7.21723 27.6806 7.03859 27.1384L6.81736 26.6279C6.63089 26.2251 6.39663 25.8463 6.11963 25.4996C5.80309 25.086 5.48146 24.8069 5.15641 24.6589L5.00325 24.5483C4.89645 24.4718 4.79931 24.3826 4.71395 24.2828C4.63242 24.1901 4.5653 24.0857 4.51484 23.9731C4.47059 23.8693 4.50803 23.7842 4.62546 23.7178C4.74458 23.6497 4.95731 23.6174 5.26873 23.6174L5.7112 23.6855C6.00561 23.7433 6.37149 23.9203 6.80545 24.2147C7.24461 24.5141 7.61146 24.9077 7.87927 25.3668C8.21963 25.971 8.62806 26.4322 9.10796 26.7504C9.58787 27.0669 10.0712 27.2269 10.5579 27.2269C11.0446 27.2269 11.4649 27.1894 11.8206 27.1163C12.1646 27.0452 12.4988 26.9332 12.8162 26.7827C12.9489 25.7957 13.3097 25.0333 13.9002 24.5023C13.135 24.4273 12.3767 24.2942 11.6317 24.1041C10.9047 23.9044 10.2055 23.6145 9.55043 23.2413C8.86502 22.8682 8.25963 22.3639 7.76866 21.7573C7.29726 21.1668 6.90925 20.3925 6.60634 19.4344C6.30512 18.4746 6.15366 17.3667 6.15366 16.1125C6.15366 14.3273 6.73567 12.8076 7.9014 11.5517C7.35682 10.2107 7.40788 8.70464 8.05626 7.03859C8.48511 6.90415 9.11988 7.00455 9.96056 7.3364C10.8012 7.66825 11.4173 7.95245 11.8087 8.1873C12.2001 8.42555 12.5132 8.62466 12.7498 8.78633C14.1333 8.4013 15.5631 8.20777 16.9991 8.21112C18.461 8.21112 19.8769 8.40342 21.2502 8.78633L22.0909 8.25537C22.7375 7.86711 23.4196 7.54117 24.1279 7.28195C24.9108 6.98583 25.5064 6.90585 25.9216 7.03859C26.5853 8.70634 26.6432 10.2107 26.0969 11.5534C27.2626 12.8076 27.8463 14.3273 27.8463 16.1142C27.8463 17.3684 27.6949 18.4797 27.392 19.4446C27.0907 20.4112 26.6993 21.1855 26.2194 21.7693C25.7198 22.3681 25.1119 22.8675 24.4274 23.2413C23.7127 23.6395 23.0184 23.9271 22.3462 24.1041C21.6013 24.2948 20.8429 24.4285 20.0777 24.504C20.8435 25.1677 21.2281 26.2143 21.2281 27.6455V32.9381C21.2281 33.1882 21.2638 33.3908 21.3387 33.5456C21.3731 33.6202 21.4222 33.6872 21.483 33.7424C21.5438 33.7977 21.6151 33.8401 21.6927 33.8673C21.856 33.9251 21.999 33.9626 22.1249 33.9762C22.2509 33.9932 22.4313 33.9983 22.6661 33.9983H27.6251C29.3813 33.9983 30.8823 33.3754 32.1297 32.128C33.3754 30.8823 34 29.3796 34 27.6234V6.37489C34 4.61865 33.3754 3.11767 32.128 1.87026H32.1297Z" fill="black"/>
</svg>
