<svg width="610" height="610" viewBox="0 0 610 610" fill="none" xmlns="http://www.w3.org/2000/svg">
<g opacity="0.79">
<path opacity="0.79" d="M457.398 457.397C541.602 373.193 541.602 236.67 457.398 152.466C373.193 68.2613 236.67 68.2612 152.466 152.466C68.2613 236.67 68.2613 373.193 152.466 457.398C236.67 541.602 373.193 541.602 457.398 457.397Z" stroke="#9ED0B0" stroke-opacity="0.5" stroke-width="0.5" stroke-miterlimit="10"/>
<path opacity="0.79" d="M446.652 446.652C524.923 368.382 524.923 241.481 446.652 163.211C368.382 84.9409 241.481 84.9408 163.211 163.211C84.941 241.481 84.941 368.382 163.211 446.652C241.481 524.922 368.382 524.922 446.652 446.652Z" stroke="#9ED0B0" stroke-opacity="0.5" stroke-width="0.7273" stroke-miterlimit="10"/>
<path opacity="0.79" d="M304.941 490.158C407.24 490.158 490.17 407.228 490.17 304.929C490.17 202.629 407.24 119.7 304.941 119.7C202.642 119.7 119.712 202.629 119.712 304.929C119.712 407.228 202.642 490.158 304.941 490.158Z" stroke="#9ED0B0" stroke-opacity="0.5" stroke-width="0.9545" stroke-miterlimit="10"/>
<path opacity="0.79" d="M304.941 474.985C398.86 474.985 474.997 398.848 474.997 304.929C474.997 211.009 398.86 134.872 304.941 134.872C211.021 134.872 134.885 211.009 134.885 304.929C134.885 398.848 211.021 474.985 304.941 474.985Z" stroke="#9ED0B0" stroke-opacity="0.5" stroke-width="1.1818" stroke-miterlimit="10"/>
<path opacity="0.79" d="M304.941 459.789C390.468 459.789 459.801 390.456 459.801 304.929C459.801 219.402 390.468 150.068 304.941 150.068C219.414 150.068 150.081 219.402 150.081 304.929C150.081 390.456 219.414 459.789 304.941 459.789Z" stroke="#9ED0B0" stroke-opacity="0.5" stroke-width="1.4091" stroke-miterlimit="10"/>
<path opacity="0.79" d="M304.941 444.593C382.075 444.593 444.605 382.063 444.605 304.929C444.605 227.794 382.075 165.264 304.941 165.264C227.806 165.264 165.277 227.794 165.277 304.929C165.277 382.063 227.806 444.593 304.941 444.593Z" stroke="#9ED0B0" stroke-opacity="0.5" stroke-width="1.6364" stroke-miterlimit="10"/>
<path opacity="0.79" d="M304.941 429.396C373.683 429.396 429.409 373.67 429.409 304.929C429.409 236.187 373.683 180.461 304.941 180.461C236.199 180.461 180.473 236.187 180.473 304.929C180.473 373.67 236.199 429.396 304.941 429.396Z" stroke="#9ED0B0" stroke-opacity="0.5" stroke-width="1.8636" stroke-miterlimit="10"/>
<path opacity="0.79" d="M304.941 414.2C365.29 414.2 414.213 365.278 414.213 304.929C414.213 244.579 365.29 195.657 304.941 195.657C244.592 195.657 195.669 244.579 195.669 304.929C195.669 365.278 244.592 414.2 304.941 414.2Z" stroke="#9ED0B0" stroke-opacity="0.5" stroke-width="2.0909" stroke-miterlimit="10"/>
<path opacity="0.79" d="M304.941 399.004C356.897 399.004 399.016 356.885 399.016 304.929C399.016 252.972 356.897 210.853 304.941 210.853C252.984 210.853 210.865 252.972 210.865 304.929C210.865 356.885 252.984 399.004 304.941 399.004Z" stroke="#9ED0B0" stroke-opacity="0.5" stroke-width="2.3182" stroke-miterlimit="10"/>
<path opacity="0.79" d="M304.941 383.808C348.505 383.808 383.82 348.493 383.82 304.929C383.82 261.365 348.505 226.049 304.941 226.049C261.377 226.049 226.061 261.365 226.061 304.929C226.061 348.493 261.377 383.808 304.941 383.808Z" stroke="#9ED0B0" stroke-opacity="0.5" stroke-width="2.5454" stroke-miterlimit="10"/>
<path opacity="0.79" d="M304.941 368.612C340.112 368.612 368.624 340.1 368.624 304.929C368.624 269.757 340.112 241.245 304.941 241.245C269.769 241.245 241.257 269.757 241.257 304.929C241.257 340.1 269.769 368.612 304.941 368.612Z" stroke="#9ED0B0" stroke-opacity="0.5" stroke-width="2.7727" stroke-miterlimit="10"/>
<path opacity="0.79" d="M304.941 353.416C331.719 353.416 353.428 331.707 353.428 304.929C353.428 278.15 331.719 256.441 304.941 256.441C278.162 256.441 256.453 278.15 256.453 304.929C256.453 331.707 278.162 353.416 304.941 353.416Z" stroke="#9ED0B0" stroke-opacity="0.5" stroke-width="3" stroke-miterlimit="10"/>
</g>
</svg>
