<svg width="70" height="65" viewBox="0 0 70 65" fill="none" xmlns="http://www.w3.org/2000/svg">
<path fill-rule="evenodd" clip-rule="evenodd" d="M10.1348 18.9818C12.4806 14.004 14.1412 8.65843 15.7122 3.46619C16.0466 2.3472 15.4326 1.15264 14.3296 0.882987C13.2395 0.531557 12.0799 1.17632 11.7591 2.21366C10.241 7.2469 8.6497 12.4352 6.39982 17.1774C5.91501 18.1871 6.35274 19.4366 7.38188 19.9456C8.41021 20.4546 9.64921 19.9914 10.1348 18.9818Z" fill="black"/>
<path fill-rule="evenodd" clip-rule="evenodd" d="M28.2553 38.3182C38.2516 31.3543 47.3222 23.1433 57.5213 16.3815C58.4679 15.7853 58.7319 14.4866 58.1011 13.5409C57.4696 12.595 56.1901 12.296 55.2298 12.9738C45.0054 19.7314 35.9104 27.9383 25.8887 34.8979C24.9479 35.579 24.7167 36.8829 25.3694 37.8323C26.0352 38.6999 27.3145 38.9993 28.2553 38.3182Z" fill="black"/>
<path fill-rule="evenodd" clip-rule="evenodd" d="M58.6072 59.6316C53.6547 59.0497 48.7024 58.4672 43.7491 57.8852C42.6242 57.6958 41.5906 58.5296 41.4529 59.6817C41.3159 60.834 42.1362 61.8111 43.2619 62.0006C48.2225 62.5839 53.1822 63.1676 58.142 63.7508C59.2807 63.8585 60.3085 63.024 60.4397 61.8708C60.5572 60.7992 59.745 59.7392 58.6072 59.6316Z" fill="black"/>
</svg>
