<svg width="154" height="317" viewBox="0 0 154 317" fill="none" xmlns="http://www.w3.org/2000/svg">
<path d="M144.258 19.5018C139.162 19.5018 135.007 15.3699 135.007 10.2509C135.007 5.13192 139.139 1 144.258 1C149.354 1 153.509 5.13192 153.509 10.2509C153.509 15.3699 149.377 19.5018 144.258 19.5018Z" fill="#1DB954" fill-opacity="0.15"/>
<path d="M144.258 69.0848C139.162 69.0848 135.007 64.9529 135.007 59.8339C135.007 54.7379 139.139 50.583 144.258 50.583C149.354 50.583 153.509 54.7149 153.509 59.8339C153.509 64.93 149.377 69.0848 144.258 69.0848Z" fill="#1DB954" fill-opacity="0.15"/>
<path d="M144.258 118.668C139.162 118.668 135.007 114.536 135.007 109.417C135.007 104.298 139.139 100.166 144.258 100.166C149.354 100.166 153.509 104.298 153.509 109.417C153.509 114.536 149.377 118.668 144.258 118.668Z" fill="#1DB954" fill-opacity="0.15"/>
<path d="M144.258 168.228C139.162 168.228 135.007 164.096 135.007 158.977C135.007 153.858 139.139 149.726 144.258 149.726C149.354 149.726 153.509 153.858 153.509 158.977C153.509 164.096 149.377 168.228 144.258 168.228Z" fill="#1D262D" fill-opacity="0.15"/>
<path d="M144.258 217.811C139.162 217.811 135.007 213.679 135.007 208.56C135.007 203.464 139.139 199.309 144.258 199.309C149.354 199.309 153.509 203.441 153.509 208.56C153.509 213.679 149.377 217.811 144.258 217.811Z" fill="#1DB954" fill-opacity="0.15"/>
<path d="M144.258 267.394C139.162 267.394 135.007 263.262 135.007 258.143C135.007 253.024 139.139 248.892 144.258 248.892C149.354 248.892 153.509 253.024 153.509 258.143C153.509 263.262 149.377 267.394 144.258 267.394Z" fill="#1DB954" fill-opacity="0.15"/>
<path d="M144.258 316.977C139.162 316.977 135.007 312.845 135.007 307.726C135.007 302.607 139.139 298.475 144.258 298.475C149.354 298.475 153.509 302.607 153.509 307.726C153.509 312.845 149.377 316.977 144.258 316.977Z" fill="#1D262D" fill-opacity="0.15"/>
<path d="M110.756 19.5018C115.865 19.5018 120.007 15.36 120.007 10.2509C120.007 5.14177 115.865 1 110.756 1C105.647 1 101.505 5.14177 101.505 10.2509C101.505 15.36 105.647 19.5018 110.756 19.5018Z" fill="#1DB954" fill-opacity="0.15"/>
<path d="M110.756 69.0848C105.66 69.0848 101.505 64.9529 101.505 59.8339C101.505 54.7379 105.637 50.583 110.756 50.583C115.852 50.583 120.007 54.7149 120.007 59.8339C120.007 64.93 115.852 69.0848 110.756 69.0848Z" stroke="#1DB954" stroke-opacity="0.15" stroke-miterlimit="10"/>
<path d="M110.756 118.668C115.865 118.668 120.007 114.526 120.007 109.417C120.007 104.308 115.865 100.166 110.756 100.166C105.647 100.166 101.505 104.308 101.505 109.417C101.505 114.526 105.647 118.668 110.756 118.668Z" fill="#1DB954" fill-opacity="0.15"/>
<path d="M110.756 168.251C115.865 168.251 120.007 164.109 120.007 159C120.007 153.891 115.865 149.749 110.756 149.749C105.647 149.749 101.505 153.891 101.505 159C101.505 164.109 105.647 168.251 110.756 168.251Z" fill="#1DB954" fill-opacity="0.15"/>
<path d="M110.756 217.811C105.66 217.811 101.505 213.679 101.505 208.56C101.505 203.464 105.637 199.309 110.756 199.309C115.852 199.309 120.007 203.441 120.007 208.56C120.007 213.679 115.852 217.811 110.756 217.811Z" fill="#1DB954" fill-opacity="0.15"/>
<path d="M110.756 267.417C115.865 267.417 120.007 263.275 120.007 258.166C120.007 253.057 115.865 248.915 110.756 248.915C105.647 248.915 101.505 253.057 101.505 258.166C101.505 263.275 105.647 267.417 110.756 267.417Z" stroke="#1DB954" stroke-opacity="0.15" stroke-miterlimit="10"/>
<path d="M110.756 317C115.865 317 120.007 312.858 120.007 307.749C120.007 302.64 115.865 298.498 110.756 298.498C105.647 298.498 101.505 302.64 101.505 307.749C101.505 312.858 105.647 317 110.756 317Z" fill="#1DB954" fill-opacity="0.15"/>
<path d="M77.2543 19.5018C82.3635 19.5018 86.5052 15.36 86.5052 10.2509C86.5052 5.14177 82.3635 1 77.2543 1C72.1452 1 68.0034 5.14177 68.0034 10.2509C68.0034 15.36 72.1452 19.5018 77.2543 19.5018Z" fill="#1DB954" fill-opacity="0.15"/>
<path d="M77.2543 69.0848C72.1583 69.0848 68.0034 64.9529 68.0034 59.8339C68.0034 54.7379 72.1353 50.583 77.2543 50.583C82.3733 50.583 86.5052 54.7149 86.5052 59.8339C86.5052 64.93 82.3733 69.0848 77.2543 69.0848Z" fill="#1DB954" fill-opacity="0.15"/>
<path d="M77.2543 118.668C82.3635 118.668 86.5052 114.526 86.5052 109.417C86.5052 104.308 82.3635 100.166 77.2543 100.166C72.1452 100.166 68.0034 104.308 68.0034 109.417C68.0034 114.526 72.1452 118.668 77.2543 118.668Z" fill="#1DB954" fill-opacity="0.15"/>
<path d="M77.2543 168.251C82.3635 168.251 86.5052 164.109 86.5052 159C86.5052 153.891 82.3635 149.749 77.2543 149.749C72.1452 149.749 68.0034 153.891 68.0034 159C68.0034 164.109 72.1452 168.251 77.2543 168.251Z" fill="#1DB954" fill-opacity="0.15"/>
<path d="M77.2543 217.811C72.1583 217.811 68.0034 213.679 68.0034 208.56C68.0034 203.464 72.1353 199.309 77.2543 199.309C82.3733 199.309 86.5052 203.441 86.5052 208.56C86.5052 213.679 82.3733 217.811 77.2543 217.811Z" fill="#1D262D" fill-opacity="0.15"/>
<path d="M77.2543 267.417C82.3635 267.417 86.5052 263.275 86.5052 258.166C86.5052 253.057 82.3635 248.915 77.2543 248.915C72.1452 248.915 68.0034 253.057 68.0034 258.166C68.0034 263.275 72.1452 267.417 77.2543 267.417Z" fill="#1DB954" fill-opacity="0.15"/>
<path d="M77.2543 317C82.3635 317 86.5052 312.858 86.5052 307.749C86.5052 302.64 82.3635 298.498 77.2543 298.498C72.1452 298.498 68.0034 302.64 68.0034 307.749C68.0034 312.858 72.1452 317 77.2543 317Z" fill="#1DB954" fill-opacity="0.15"/>
<path d="M43.7526 19.5018C48.8618 19.5018 53.0035 15.36 53.0035 10.2509C53.0035 5.14177 48.8618 1 43.7526 1C38.6435 1 34.5017 5.14177 34.5017 10.2509C34.5017 15.36 38.6435 19.5018 43.7526 19.5018Z" fill="#1DB954" fill-opacity="0.15"/>
<path d="M43.7526 69.0848C38.6566 69.0848 34.5017 64.9529 34.5017 59.8339C34.5017 54.7379 38.6336 50.583 43.7526 50.583C48.8716 50.583 53.0035 54.7149 53.0035 59.8339C53.0035 64.93 48.8716 69.0848 43.7526 69.0848Z" fill="#1D262D" fill-opacity="0.15"/>
<path d="M43.7526 118.668C48.8618 118.668 53.0035 114.526 53.0035 109.417C53.0035 104.308 48.8618 100.166 43.7526 100.166C38.6435 100.166 34.5017 104.308 34.5017 109.417C34.5017 114.526 38.6435 118.668 43.7526 118.668Z" fill="#1DB954" fill-opacity="0.15"/>
<path d="M43.7526 168.251C48.8618 168.251 53.0035 164.109 53.0035 159C53.0035 153.891 48.8618 149.749 43.7526 149.749C38.6435 149.749 34.5017 153.891 34.5017 159C34.5017 164.109 38.6435 168.251 43.7526 168.251Z" stroke="#1DB954" stroke-opacity="0.15" stroke-miterlimit="10"/>
<path d="M43.7526 217.811C38.6566 217.811 34.5017 213.679 34.5017 208.56C34.5017 203.464 38.6336 199.309 43.7526 199.309C48.8716 199.309 53.0035 203.441 53.0035 208.56C53.0035 213.679 48.8716 217.811 43.7526 217.811Z" fill="#1DB954" fill-opacity="0.15"/>
<path d="M43.7526 267.417C48.8618 267.417 53.0035 263.275 53.0035 258.166C53.0035 253.057 48.8618 248.915 43.7526 248.915C38.6435 248.915 34.5017 253.057 34.5017 258.166C34.5017 263.275 38.6435 267.417 43.7526 267.417Z" fill="#1DB954" fill-opacity="0.15"/>
<path d="M43.7526 317C48.8618 317 53.0035 312.858 53.0035 307.749C53.0035 302.64 48.8618 298.498 43.7526 298.498C38.6435 298.498 34.5017 302.64 34.5017 307.749C34.5017 312.858 38.6435 317 43.7526 317Z" fill="#1DB954" fill-opacity="0.15"/>
<path d="M10.2509 19.5018C15.36 19.5018 19.5018 15.36 19.5018 10.2509C19.5018 5.14177 15.36 1 10.2509 1C5.14177 1 1 5.14177 1 10.2509C1 15.36 5.14177 19.5018 10.2509 19.5018Z" stroke="#1DB954" stroke-opacity="0.15" stroke-miterlimit="10"/>
<path d="M10.2509 69.0848C5.15487 69.0848 1 64.9529 1 59.8339C1 54.7379 5.13192 50.583 10.2509 50.583C15.3469 50.583 19.5018 54.7149 19.5018 59.8339C19.5018 64.93 15.3469 69.0848 10.2509 69.0848Z" fill="#1DB954" fill-opacity="0.15"/>
<path d="M10.2509 118.668C15.36 118.668 19.5018 114.526 19.5018 109.417C19.5018 104.308 15.36 100.166 10.2509 100.166C5.14177 100.166 1 104.308 1 109.417C1 114.526 5.14177 118.668 10.2509 118.668Z" fill="#1DB954" fill-opacity="0.15"/>
<path d="M10.2509 168.251C15.36 168.251 19.5018 164.109 19.5018 159C19.5018 153.891 15.36 149.749 10.2509 149.749C5.14177 149.749 1 153.891 1 159C1 164.109 5.14177 168.251 10.2509 168.251Z" fill="#1DB954" fill-opacity="0.15"/>
<path d="M10.2509 217.811C5.15487 217.811 1 213.679 1 208.56C1 203.464 5.13192 199.309 10.2509 199.309C15.3469 199.309 19.5018 203.441 19.5018 208.56C19.5018 213.679 15.3469 217.811 10.2509 217.811Z" fill="#1DB954" fill-opacity="0.15"/>
<path d="M10.2509 267.417C15.36 267.417 19.5018 263.275 19.5018 258.166C19.5018 253.057 15.36 248.915 10.2509 248.915C5.14177 248.915 1 253.057 1 258.166C1 263.275 5.14177 267.417 10.2509 267.417Z" fill="#1DB954" fill-opacity="0.15"/>
<path d="M10.2509 317C15.36 317 19.5018 312.858 19.5018 307.749C19.5018 302.64 15.36 298.498 10.2509 298.498C5.14177 298.498 1 302.64 1 307.749C1 312.858 5.14177 317 10.2509 317Z" fill="#1DB954" fill-opacity="0.15"/>
</svg>
