<svg width="75" height="54" viewBox="0 0 75 54" fill="none" xmlns="http://www.w3.org/2000/svg">
<path d="M46.4347 14.728V19.66H39.7387V40H33.5827V19.66H26.8867V14.728H46.4347ZM71.4122 14.728V40H65.2562V29.596H55.6802V40H49.5242V14.728H55.6802V24.628H65.2562V14.728H71.4122Z" fill="#1C1C1C"/>
<rect width="13.6512" height="12.9359" transform="matrix(0.880631 0.473803 -2.36407e-08 1 23.0227 27.0142)" fill="#3F9B60"/>
<rect width="13.6512" height="13.6512" transform="matrix(0.880631 0.473803 -0.880631 0.473803 35.0443 20.5703)" fill="#1DB954"/>
<rect width="13.6512" height="12.9359" transform="matrix(0.880631 -0.473803 2.36407e-08 1 35.0464 33.4822)" fill="#6FD392"/>
<rect width="13.6512" height="12.9359" transform="matrix(0.880631 0.473803 -2.36407e-08 1 0 13.4439)" fill="#3F9B60"/>
<rect width="13.6512" height="13.6512" transform="matrix(0.880631 0.473803 -0.880631 0.473803 12.0216 7)" fill="#1DB954"/>
<rect width="13.6512" height="12.9359" transform="matrix(0.880631 -0.473803 2.36407e-08 1 12.0237 19.9119)" fill="#6FD392"/>
<rect width="13.6512" height="12.9359" transform="matrix(0.880631 0.473803 -2.36407e-08 1 11.9774 32.9173)" fill="#3F9B60"/>
<rect width="13.6512" height="13.6512" transform="matrix(0.880631 0.473803 -0.880631 0.473803 23.999 26.4733)" fill="#1DB954"/>
<rect width="13.6512" height="12.9359" transform="matrix(0.880631 -0.473803 2.36407e-08 1 24.0011 39.3853)" fill="#6FD392"/>
</svg>
